<svg width="446" height="242" viewBox="0 0 446 242" fill="none" xmlns="http://www.w3.org/2000/svg">
<path d="M2.109 90H0.445001L11.581 0.399994H15.805L42.685 83.216L69.437 0.399994H73.661L84.797 90H74.173L65.341 18.32L42.173 90H34.109L10.685 19.216L2.109 90ZM151.734 90C145.931 90 141.963 88.8907 139.83 86.672C137.867 84.7947 136.886 83.1733 136.886 81.808V79.12C132.705 86.7147 126.006 90.512 116.79 90.512C106.038 90.512 99.9367 85.648 98.486 75.92C98.3153 74.896 98.23 73.872 98.23 72.848C98.23 71.7387 98.4007 70.544 98.742 69.264C99.0833 67.984 100.065 66.576 101.686 65.04C104.929 61.968 112.054 60.0907 123.062 59.408C125.793 59.152 128.31 59.024 130.614 59.024C132.918 59.024 135.009 59.1093 136.886 59.28V38.032C136.715 37.9467 136.715 37.5627 136.886 36.88C137.057 36.112 136.886 35.1733 136.374 34.064C135.947 32.8693 135.35 31.7173 134.582 30.608C133.814 29.4987 132.449 28.56 130.486 27.792C128.523 26.9387 125.963 26.512 122.806 26.512C119.649 26.512 115.937 27.1093 111.67 28.304C107.489 29.4133 104.417 30.5227 102.454 31.632L101.942 30.736C109.537 27.2373 117.259 25.488 125.11 25.488C133.899 25.488 139.702 27.0667 142.518 30.224C144.737 32.6987 145.846 35.3013 145.846 38.032V80.912C145.846 83.3867 146.315 85.3067 147.254 86.672C148.278 87.952 149.302 88.6347 150.326 88.72L151.734 88.976H155.702V90H151.734ZM118.838 89.488C123.361 89.488 127.414 87.952 130.998 84.88C134.667 81.7227 136.63 78.6933 136.886 75.792V60.304C134.582 60.1333 132.235 60.048 129.846 60.048C127.542 60.048 125.238 60.176 122.934 60.432C116.449 61.2 112.225 62.6507 110.262 64.784C108.299 66.9173 107.318 69.8613 107.318 73.616C107.318 74.2987 107.361 75.0667 107.446 75.92C108.214 84.9653 112.011 89.488 118.838 89.488ZM164.605 27.024V26H167.293V13.2H176.253V26H195.837V27.024H176.253V73.616C176.253 79.1627 176.85 83.1733 178.045 85.648C179.325 88.1227 181.928 89.36 185.853 89.36C189.864 89.36 193.917 88.5493 198.013 86.928L198.397 87.952C194.13 89.5733 189.224 90.384 183.677 90.384C178.216 90.384 174.12 89.2747 171.389 87.056C168.658 84.752 167.293 80.2293 167.293 73.488V27.024H164.605ZM216.955 75.28C216.955 82.0213 218.747 86.3307 222.331 88.208C224.038 89.0613 226.214 89.488 228.859 89.488C234.235 89.488 239.014 87.44 243.195 83.344C247.462 79.248 249.766 75.4507 250.107 71.952V26H259.067V80.912C259.067 83.3867 259.536 85.3067 260.475 86.672C261.499 87.952 262.523 88.6347 263.547 88.72L264.955 88.976H268.923V90H261.115C257.616 90 254.928 89.232 253.051 87.696C251.259 86.16 250.32 84.624 250.235 83.088L250.107 80.912V75.408C248.571 79.0773 245.84 82.5333 241.915 85.776C237.99 88.9333 233.68 90.512 228.987 90.512C224.379 90.512 220.582 90.0853 217.595 89.232C214.694 88.2933 212.603 87.0133 211.323 85.392C209.104 82.7467 207.995 79.3333 207.995 75.152V26H216.955V75.28ZM299.818 31.504V28.816C295.978 30.352 292.479 33.4667 289.322 38.16C286.165 42.768 284.501 47.12 284.33 51.216V90H275.37V26H284.33V46.352C285.695 41.4027 288.298 36.752 292.138 32.4C295.978 27.9627 300.33 25.6587 305.194 25.488H305.706C307.413 25.488 308.821 26.0853 309.93 27.28C311.125 28.3893 311.722 29.7973 311.722 31.504C311.722 33.2107 311.125 34.6187 309.93 35.728C308.821 36.8373 307.413 37.392 305.706 37.392C303.999 37.392 302.591 36.8373 301.482 35.728C300.373 34.6187 299.818 33.2107 299.818 31.504ZM334.426 90C330.927 90 328.239 89.232 326.362 87.696C324.57 86.16 323.631 84.624 323.546 83.088L323.418 80.912V26H332.378V80.912C332.378 83.3867 332.847 85.3067 333.786 86.672C334.81 87.952 335.791 88.6347 336.73 88.72L338.266 88.976H342.234V90H334.426ZM324.186 11.664C323.162 10.64 322.65 9.36 322.65 7.824C322.65 6.288 323.162 5.008 324.186 3.98399C325.21 2.87466 326.49 2.31999 328.026 2.31999C329.562 2.31999 330.842 2.87466 331.866 3.98399C332.975 5.008 333.53 6.288 333.53 7.824C333.53 9.36 332.975 10.64 331.866 11.664C330.842 12.688 329.562 13.2 328.026 13.2C326.49 13.2 325.21 12.688 324.186 11.664ZM351.855 27.024V26H354.543V13.2H363.503V26H383.087V27.024H363.503V73.616C363.503 79.1627 364.1 83.1733 365.295 85.648C366.575 88.1227 369.178 89.36 373.103 89.36C377.114 89.36 381.167 88.5493 385.263 86.928L385.647 87.952C381.38 89.5733 376.474 90.384 370.927 90.384C365.466 90.384 361.37 89.2747 358.639 87.056C355.908 84.752 354.543 80.2293 354.543 73.488V27.024H351.855ZM408.489 112.912C405.758 118.971 402.388 122 398.377 122C396.585 122 394.494 121.701 392.105 121.104V120.08C394.068 120.592 395.817 120.848 397.353 120.848C401.705 120.848 405.033 118.203 407.337 112.912L418.089 90H417.961L394.153 26H403.113L422.953 79.376L442.537 38.8C443.561 37.008 444.073 34.8747 444.073 32.4C444.073 29.9253 443.39 28.048 442.025 26.768L442.793 26C443.134 26.1707 443.561 26.6827 444.073 27.536C444.67 28.3893 445.012 29.1573 445.097 29.84C445.268 30.5227 445.353 31.1627 445.353 31.76C445.353 34.064 444.841 36.4107 443.817 38.8L419.241 90L408.489 112.912ZM37.2965 241H35.6325L46.7685 151.4H50.9925L77.8725 234.216L104.625 151.4H108.849L119.985 241H109.361L100.529 169.32L77.3605 241H69.2965L45.8725 170.216L37.2965 241ZM161.894 241.512C152.934 241.512 145.638 238.952 140.006 233.832C134.374 228.712 131.558 220.819 131.558 210.152C131.558 199.485 134.459 191.208 140.262 185.32C146.15 179.432 153.574 176.488 162.534 176.488C171.579 176.488 178.918 179.048 184.55 184.168C190.182 189.288 192.998 197.181 192.998 207.848C192.998 218.515 190.054 226.792 184.166 232.68C178.363 238.568 170.939 241.512 161.894 241.512ZM162.79 177.512C156.304 177.512 150.928 180.413 146.662 186.216C142.395 191.933 140.262 199.955 140.262 210.28C140.262 220.52 142.224 228.115 146.15 233.064C150.075 238.013 155.28 240.488 161.766 240.488C168.251 240.488 173.627 237.629 177.894 231.912C182.16 226.109 184.294 218.088 184.294 207.848C184.294 197.523 182.331 189.885 178.406 184.936C174.48 179.987 169.275 177.512 162.79 177.512ZM203.183 211.304C203.183 200.211 205.871 191.635 211.247 185.576C216.623 179.517 224.687 176.488 235.439 176.488C240.473 176.488 245.551 177.768 250.671 180.328V145.128H259.631V231.912C259.631 234.387 260.1 236.307 261.039 237.672C262.063 238.952 263.087 239.635 264.111 239.72L265.519 239.976H269.487V241H261.679C258.18 241 255.492 240.232 253.615 238.696C251.823 237.16 250.884 235.624 250.799 234.088L250.671 231.912V229.864C249.049 232.851 246.361 235.496 242.607 237.8C238.852 240.104 234.415 241.256 229.295 241.256C211.887 240.829 203.183 230.845 203.183 211.304ZM229.423 240.232C235.14 240.232 240.047 238.696 244.143 235.624C248.239 232.552 250.415 229.523 250.671 226.536V181.48C244.612 178.835 239.407 177.512 235.055 177.512C227.46 177.512 221.743 180.499 217.903 186.472C214.063 192.36 212.143 200.637 212.143 211.304C212.143 230.589 217.903 240.232 229.423 240.232ZM282.012 209.768C282.012 220.349 283.846 228.115 287.516 233.064C291.27 238.013 296.177 240.488 302.236 240.488C310.769 240.488 318.364 239.208 325.02 236.648L325.404 237.544C318.577 240.189 310.854 241.512 302.236 241.512C293.702 241.512 286.748 238.952 281.372 233.832C275.996 228.712 273.308 220.819 273.308 210.152C273.308 199.485 276.124 191.208 281.756 185.32C287.388 179.432 294.556 176.488 303.26 176.488C310.257 176.488 316.145 178.579 320.924 182.76C325.702 186.941 328.092 193.128 328.092 201.32C328.092 201.747 328.092 202.173 328.092 202.6H282.396C282.14 204.904 282.012 207.293 282.012 209.768ZM319.388 201.576C319.302 193.384 317.724 187.325 314.652 183.4C311.58 179.475 307.612 177.512 302.748 177.512C297.884 177.512 293.532 179.645 289.692 183.912C285.937 188.179 283.548 194.067 282.524 201.576H319.388ZM353.439 241C345.929 241 341.193 239.037 339.231 235.112C338.804 234.259 338.591 233.491 338.591 232.808V145.128H347.551V231.912C347.551 234.387 348.02 236.307 348.958 237.672C349.983 238.952 351.007 239.635 352.031 239.72L353.439 239.976H357.407V241H353.439ZM403.184 181.48C401.818 180.371 399.6 179.432 396.528 178.664C393.541 177.896 391.28 177.512 389.744 177.512C388.208 177.512 387.312 177.512 387.056 177.512C382.448 177.597 379.12 178.792 377.072 181.096C375.024 183.315 374 185.832 374 188.648C374 191.464 374.896 193.853 376.688 195.816C378.48 197.693 380.698 199.187 383.344 200.296C386.074 201.32 388.976 202.515 392.048 203.88C395.205 205.245 398.106 206.653 400.752 208.104C403.482 209.469 405.744 211.517 407.536 214.248C409.328 216.893 410.224 220.221 410.224 224.232C410.224 228.243 408.816 231.656 406 234.472C403.184 237.288 400.026 239.165 396.528 240.104C393.114 241.043 389.402 241.512 385.392 241.512C376.688 241.512 370.16 239.592 365.808 235.752L366.576 234.984C368.282 236.605 370.8 237.928 374.128 238.952C377.541 239.976 380.826 240.488 383.984 240.488C389.018 240.488 393.157 239.123 396.4 236.392C399.728 233.576 401.392 230.12 401.392 226.024C401.392 221.843 400.154 218.515 397.68 216.04C395.205 213.48 392.176 211.517 388.592 210.152C385.093 208.701 381.552 207.293 377.968 205.928C374.384 204.477 371.354 202.515 368.88 200.04C366.405 197.48 365.168 194.536 365.168 191.208C365.168 187.88 365.936 185.192 367.472 183.144C369.008 181.011 371.056 179.517 373.616 178.664C377.968 177.213 382.32 176.488 386.672 176.488C394.01 176.488 399.728 177.853 403.824 180.584L403.184 181.48Z" fill="url(#paint0_linear_1_2)"/>
<defs>
<linearGradient id="paint0_linear_1_2" x1="221" y1="-29" x2="221" y2="273" gradientUnits="userSpaceOnUse">
<stop stop-color="#4A56D5"/>
<stop offset="1" stop-color="white"/>
</linearGradient>
</defs>
</svg>
